<svg viewBox="0 0 55.7754 36" xmlns="http://www.w3.org/2000/svg" xmlns:xlink="http://www.w3.org/1999/xlink" width="55.775391" height="36.000000" fill="none" customFrame="#000000">
	<path id="Vector" d="M20.4354 15.3529C21.8727 16.2941 22.9664 17.5 23.7163 18.9706C24.4662 20.3824 24.8412 21.9706 24.8412 23.7353C24.8412 27.3824 23.5601 30.3529 20.9978 32.6471C18.4356 34.8824 15.2797 36 11.5301 36C8.09292 36 5.31195 35.0294 3.18717 33.0882C1.06239 31.1471 0 28.6176 0 25.5C0 23.9118 0.312468 22.3824 0.937404 20.9118C1.56234 19.4412 2.71847 17.5588 4.4058 15.2647L15.4672 0L28.5908 0L20.4354 15.3529ZM47.6201 15.3529C49.0574 16.2941 50.1511 17.5 50.901 18.9706C51.6509 20.3824 52.0259 21.9706 52.0259 23.7353C52.0259 27.3824 50.7448 30.3529 48.1825 32.6471C45.6203 34.8824 42.4644 36 38.7148 36C35.2776 36 32.4967 35.0294 30.3719 33.0882C28.2471 31.1471 27.1847 28.6176 27.1847 25.5C27.1847 23.9118 27.4972 22.3824 28.1221 20.9118C28.747 19.4412 29.9032 17.5588 31.5905 15.2647L42.6519 0L55.7755 0L47.6201 15.3529Z" opacity="0.0599999987" fill="rgb(51,51,51)" fill-rule="nonzero" />
</svg>
