<svg width="33" height="32" viewBox="0 0 33 32" fill="none" xmlns="http://www.w3.org/2000/svg">
<path fill-rule="evenodd" clip-rule="evenodd" d="M3.13562 0.631872C3.13562 0.42097 3.31385 0.25 3.53372 0.25H32.1968C32.4167 0.25 32.5949 0.42097 32.5949 0.631872V28.2539C32.5949 28.4648 32.4167 28.6358 32.1968 28.6358C31.9769 28.6358 31.7987 28.4648 31.7987 28.2539V1.01374H3.53372C3.31385 1.01374 3.13562 0.842774 3.13562 0.631872Z" fill="white" stroke="white" stroke-width="0.5" stroke-linecap="round" stroke-linejoin="round"/>
<path d="M0.277343 6.55444C0.0742872 6.35139 0.0742859 6.02215 0.277343 5.81909L2.79101 3.30542C2.99409 3.10257 3.32338 3.10243 3.52637 3.30542L6.04004 5.81909C6.24282 6.02209 6.24282 6.35144 6.04004 6.55444C5.83705 6.75743 5.50776 6.75729 5.30469 6.55444L3.67871 4.92944L3.67871 28.8123L2.63867 28.8123L2.63867 4.92847L1.01269 6.55444C0.809648 6.75749 0.480401 6.75747 0.277343 6.55444Z" fill="white" stroke="white" stroke-width="0.25"/>
<path d="M25.0115 25.8054C25.2153 25.6026 25.545 25.6027 25.7488 25.8054L28.2762 28.319C28.4799 28.5221 28.4801 28.8514 28.2762 29.0544L25.7488 31.5681C25.545 31.7704 25.2152 31.7706 25.0115 31.5681C24.8074 31.3649 24.8074 31.0348 25.0115 30.8317L26.6453 29.2067L2.63751 29.2067V28.1667L26.6453 28.1667L25.0115 26.5407C24.8075 26.3376 24.8075 26.0085 25.0115 25.8054Z" fill="white" stroke="white" stroke-width="0.25"/>
<path fill-rule="evenodd" clip-rule="evenodd" d="M14.0478 0.36568C14.202 0.519921 14.202 0.769994 14.0478 0.924235L9.30827 5.66373C9.15403 5.81797 8.90395 5.81797 8.74971 5.66373C8.59547 5.50949 8.59547 5.25941 8.74971 5.10517L13.4892 0.36568C13.6434 0.21144 13.8935 0.21144 14.0478 0.36568Z" fill="white" stroke="white" stroke-width="0.5" stroke-linecap="round" stroke-linejoin="round"/>
<path fill-rule="evenodd" clip-rule="evenodd" d="M32.3476 19.1923C32.5018 19.3466 32.5018 19.5967 32.3476 19.7509L28.003 24.0954C27.8488 24.2497 27.5987 24.2497 27.4445 24.0954C27.2902 23.9412 27.2902 23.6911 27.4445 23.5369L31.789 19.1923C31.9433 19.0381 32.1933 19.0381 32.3476 19.1923Z" fill="white" stroke="white" stroke-width="0.5" stroke-linecap="round" stroke-linejoin="round"/>
<path fill-rule="evenodd" clip-rule="evenodd" d="M19.9704 0.363907C20.1256 0.517162 20.1272 0.767231 19.974 0.92245L9.70506 11.323C9.55181 11.4782 9.30174 11.4798 9.14652 11.3266C8.9913 11.1733 8.98971 10.9232 9.14296 10.768L19.4119 0.367465C19.5651 0.212245 19.8152 0.210652 19.9704 0.363907Z" fill="white" stroke="white" stroke-width="0.5" stroke-linecap="round" stroke-linejoin="round"/>
<path fill-rule="evenodd" clip-rule="evenodd" d="M32.4791 12.6091C32.6334 12.7634 32.6334 13.0135 32.4791 13.1677L22.4736 23.1733C22.3193 23.3275 22.0692 23.3275 21.915 23.1733C21.7608 23.0191 21.7608 22.769 21.915 22.6147L31.9206 12.6091C32.0748 12.4549 32.3249 12.4549 32.4791 12.6091Z" fill="white" stroke="white" stroke-width="0.5" stroke-linecap="round" stroke-linejoin="round"/>
<path fill-rule="evenodd" clip-rule="evenodd" d="M26.2938 0.499595C26.4467 0.655074 26.4447 0.905139 26.2892 1.05813L9.83268 17.2514C9.6772 17.4044 9.42713 17.4024 9.27414 17.2469C9.12115 17.0914 9.12317 16.8413 9.27865 16.6884L25.7352 0.49509C25.8907 0.342099 26.1408 0.344115 26.2938 0.499595Z" fill="white" stroke="white" stroke-width="0.5" stroke-linecap="round" stroke-linejoin="round"/>
<path fill-rule="evenodd" clip-rule="evenodd" d="M32.4793 6.42177C32.6335 6.57601 32.6335 6.82609 32.4793 6.98033L15.891 23.5685C15.7368 23.7228 15.4867 23.7228 15.3325 23.5685C15.1782 23.4143 15.1782 23.1642 15.3325 23.01L31.9207 6.42177C32.0749 6.26753 32.325 6.26753 32.4793 6.42177Z" fill="white" stroke="white" stroke-width="0.5" stroke-linecap="round" stroke-linejoin="round"/>
<path fill-rule="evenodd" clip-rule="evenodd" d="M32.2159 0.497333C32.3702 0.651574 32.3702 0.901647 32.2159 1.05589L9.5717 23.7001C9.41746 23.8544 9.16738 23.8544 9.01314 23.7001C8.8589 23.5459 8.8589 23.2958 9.01314 23.1416L31.6574 0.497333C31.8116 0.343093 32.0617 0.343093 32.2159 0.497333Z" fill="white" stroke="white" stroke-width="0.5" stroke-linecap="round" stroke-linejoin="round"/>
</svg>
