<svg width="28" height="28" viewBox="0 0 28 28" fill="none" xmlns="http://www.w3.org/2000/svg">
<circle cx="14" cy="14" r="14" fill="#E3B873"/>
<path d="M17 8.39941H11C9.34316 8.39941 8.00001 9.74256 8.00001 11.3994V17.3994C8.00001 19.0563 9.34316 20.3994 11 20.3994H17C18.6569 20.3994 20 19.0563 20 17.3994V11.3994C20 9.74256 18.6569 8.39941 17 8.39941Z" stroke="white" stroke-width="1.5"/>
<path d="M16.4 14.0216C16.4741 14.5209 16.3888 15.0309 16.1563 15.479C15.9238 15.9271 15.5559 16.2904 15.105 16.5174C14.6541 16.7444 14.1431 16.8234 13.6447 16.7432C13.1463 16.663 12.6859 16.4276 12.3289 16.0707C11.972 15.7137 11.7367 15.2533 11.6565 14.7549C11.5763 14.2565 11.6553 13.7455 11.8822 13.2946C12.1092 12.8437 12.4725 12.4758 12.9206 12.2433C13.3687 12.0108 13.8787 11.9255 14.378 11.9996C14.8874 12.0751 15.3589 12.3125 15.723 12.6766C16.0872 13.0407 16.3245 13.5122 16.4 14.0216Z" stroke="white" stroke-width="1.5" stroke-linecap="round" stroke-linejoin="round"/>
</svg>
